<?xml version="1.0" encoding="UTF-8"?>
<svg width="24px" height="24px" viewBox="0 0 24 24" version="1.1" xmlns="http://www.w3.org/2000/svg" xmlns:xlink="http://www.w3.org/1999/xlink">
    <!-- Generator: Sketch 52.5 (67469) - http://www.bohemiancoding.com/sketch -->
    <title>outlook-seeklogo.com</title>
    <desc>Created with Sketch.</desc>
    <g id="Page-2" stroke="none" stroke-width="1" fill="none" fill-rule="evenodd">
        <g id="Invite-new-team-member_v3_1" transform="translate(-668.000000, -430.000000)">
            <g id="outlook-seeklogo.com" transform="translate(668.000000, 430.000000)">
                <circle id="Oval" fill="#027DCD" cx="12" cy="12" r="12"></circle>
                <g id="Group-5" transform="translate(5.000000, 5.000000)">
                    <polyline id="Fill-1" fill="#FFFFFF" points="2.54907206e-13 1.42792473 2.54907206e-13 12.3962473 8.20713208 14 8.20713208 0.0156182796 2.54907206e-13 1.42792473"></polyline>
                    <path d="M8.7165283,6.67491398 L8.7165283,10.3535645 L13.3578113,10.3535645 C13.3578113,10.3535645 14.0370189,10.2593656 13.9804151,9.37077957 L13.9837736,4.56486559 L10.5843774,6.85875806 C10.5843774,6.85875806 9.62215094,7.63365054 8.7165283,6.67491398" id="Fill-3" fill="#FFFFFF"></path>
                    <path d="M8.7165283,2.85415591 L13.3955472,2.85415591 C13.3955472,2.85415591 13.9460755,2.81652151 13.9460377,3.41453226 L9.71649057,6.22435484 L8.7165283,5.58867204 L8.7165283,2.85415591" id="Fill-5" fill="#FFFFFF"></path>
                    <path d="M4.10173585,8.35299462 C3.60554717,8.35299462 3.20332075,7.69499462 3.20332075,6.8832957 C3.20332075,6.07159677 3.60554717,5.41359677 4.10173585,5.41359677 C4.59792453,5.41359677 5.00018868,6.07159677 5.00018868,6.8832957 C5.00018868,7.69499462 4.59792453,8.35299462 4.10173585,8.35299462 Z M4.12366038,4.40683871 C3.09166038,4.40683871 2.25509434,5.51735484 2.25509434,6.88732258 C2.25509434,8.25729032 3.09166038,9.36780645 4.12366038,9.36780645 C5.15562264,9.36780645 5.99222642,8.25729032 5.99222642,6.88732258 C5.99222642,5.51735484 5.15562264,4.40683871 4.12366038,4.40683871 Z" id="Fill-6" fill="#027DCD"></path>
                </g>
            </g>
        </g>
    </g>
</svg>